<svg xmlns="http://www.w3.org/2000/svg" width="120" height="40" viewBox="0 0 120 40" fill="none">
  <path d="M20 8C14.4772 8 10 12.4772 10 18C10 23.5228 14.4772 28 20 28C25.5228 28 30 23.5228 30 18C30 12.4772 25.5228 8 20 8ZM20 12C23.3137 12 26 14.6863 26 18C26 21.3137 23.3137 24 20 24C16.6863 24 14 21.3137 14 18C14 14.6863 16.6863 12 20 12Z" fill="#0071E3"/>
  <path d="M18 16L22 20M22 16L18 20" stroke="#0071E3" stroke-width="2" stroke-linecap="round"/>
  <!-- DataSeek text - light mode -->
  <path d="M40 10H46C49.3137 10 52 12.6863 52 16V20C52 23.3137 49.3137 26 46 26H40V10ZM46 22C47.1046 22 48 21.1046 48 20V16C48 14.8954 47.1046 14 46 14H44V22H46Z" fill="#1D1D1F"/>
  <path d="M54 15H58V17C58.8184 15.7749 60.2892 15 62 15C64.4853 15 66 16.6 66 20V26H62V20.5C62 19.1193 61.5 18.5 60.5 18.5C59.5 18.5 58 19.3 58 21V26H54V15Z" fill="#1D1D1F"/>
  <path d="M68 15H77V18H72V19H76V22H72V23H77V26H68V15Z" fill="#1D1D1F"/>
  <path d="M83 15C79.5 15 77 17.5 77 20.5C77 23.5 79.5 26 83 26C86.5 26 89 23.5 89 20.5C89 17.5 86.5 15 83 15ZM83 22.5C81.75 22.5 81 21.5 81 20.5C81 19.5 81.75 18.5 83 18.5C84.25 18.5 85 19.5 85 20.5C85 21.5 84.25 22.5 83 22.5Z" fill="#1D1D1F"/>
  <path d="M94 26H90V15H94V17C94.8184 15.7749 96.2892 15 98 15C100.485 15 102 16.6 102 20V26H98V20.5C98 19.1193 97.5 18.5 96.5 18.5C95.5 18.5 94 19.3 94 21V26Z" fill="#1D1D1F"/>
  <path d="M111 15H104V19H105.5V26H109.5V19H111V15Z" fill="#1D1D1F"/>
</svg> 